<svg xmlns="http://www.w3.org/2000/svg" viewBox="0 0 20 20.001">
  <defs>
    <style>
      .cls-1 {
        fill: #d1deb0;
      }
    </style>
  </defs>
  <path id="search" class="cls-1" d="M135.432,140.58a5.126,5.126,0,1,0-3.646-1.5A4.964,4.964,0,0,0,135.432,140.58Zm6.863,0,5.684,5.684-1.716,1.716-5.684-5.684v-.912l-.322-.322a7.121,7.121,0,0,1-4.826,1.77,7.233,7.233,0,0,1-5.281-2.145,7.1,7.1,0,0,1-2.172-5.255,7.415,7.415,0,0,1,7.453-7.453,7.1,7.1,0,0,1,5.255,2.172,7.23,7.23,0,0,1,2.145,5.281,7.121,7.121,0,0,1-1.77,4.826l.322.322Z" transform="translate(-127.979 -127.979)"/>
</svg>
